<svg xmlns="http://www.w3.org/2000/svg" width="16" height="16" viewBox="0 0 16 16"><g><g><path fill="#243f4d" d="M3.702 6.076c.356-.065.68.13.746.484.096.582.355 1.066.78 1.49.42.388.941.677 1.493.776a.633.633 0 0 1 .487.743.643.643 0 0 1-.714.515 4.202 4.202 0 0 1-2.143-1.13 4.166 4.166 0 0 1-1.136-2.136c-.065-.354.128-.676.487-.742zM6.98-.004c3.465 0 6.279 2.8 6.279 6.257 0 .929-.203 1.811-.568 2.604l2.336 2.036c1.703 1.747.746 3.266.294 3.717-.422.454-1.994 1.415-3.73-.292l-2.06-2.35c-.78.345-1.64.539-2.548.539-3.468 0-6.278-2.802-6.278-6.257 0-3.456 2.807-6.254 6.275-6.254zm5.546 13.517c.293.324 1.126.867 1.88.226.21-.176.634-1.068-.227-1.874l-2.162-1.88a6.253 6.253 0 0 1-1.363 1.34zM6.98 11.2c2.742 0 4.966-2.215 4.966-4.947S9.722 1.305 6.98 1.305 2.015 3.521 2.015 6.253 4.235 11.2 6.98 11.2z"/></g></g></svg>